<?xml version="1.0" encoding="UTF-8" ?>
<!DOCTYPE svg PUBLIC "-//W3C//DTD SVG 1.1//EN" "http://www.w3.org/Graphics/SVG/1.1/DTD/svg11.dtd">
<svg width="35pt" height="34pt" viewBox="0 0 35 34" version="1.1" xmlns="http://www.w3.org/2000/svg">
<g id="#fdfdfdff">
<path fill="#fdfdfd" opacity="1.00" d=" M 8.10 1.44 C 8.50 1.34 9.32 1.14 9.73 1.04 C 12.03 2.95 14.48 4.67 17.04 6.21 C 18.78 5.19 20.52 4.16 22.25 3.12 L 22.27 2.92 C 24.05 1.35 26.33 0.35 28.44 2.12 L 27.90 3.20 L 29.14 2.85 C 29.36 3.18 29.81 3.84 30.03 4.18 C 31.41 5.00 32.86 5.79 33.90 7.03 C 34.13 12.14 34.30 17.33 33.96 22.43 C 30.31 26.18 25.86 29.15 21.10 31.30 L 21.48 31.68 C 20.06 32.46 18.66 33.26 17.22 34.00 L 17.03 34.00 C 11.76 31.54 8.43 26.52 3.51 23.58 C 2.65 23.00 1.81 22.40 0.98 21.78 C 1.05 16.72 0.88 11.66 1.14 6.61 C 3.00 5.36 4.92 4.19 6.67 2.78 C 7.05 2.59 7.81 2.21 8.19 2.02 L 8.10 1.44 M 18.91 6.50 C 21.10 8.53 22.89 11.37 25.90 12.24 C 28.13 10.94 30.18 9.36 32.35 7.96 C 29.96 6.19 27.58 4.39 25.23 2.56 C 23.36 4.22 21.32 5.72 18.91 6.50 M 11.00 11.03 C 11.16 11.62 11.32 12.20 11.48 12.79 C 12.41 13.80 13.35 14.81 14.30 15.81 C 15.51 16.16 16.61 16.75 17.58 17.57 C 19.92 16.48 22.02 14.99 24.14 13.54 C 21.91 11.25 19.36 9.33 17.05 7.13 C 15.07 8.49 13.11 9.87 11.00 11.03 M 25.80 14.07 C 26.09 18.24 26.32 22.42 26.44 26.60 C 28.60 24.94 30.77 23.27 32.98 21.66 C 33.04 17.56 33.04 13.46 33.36 9.37 C 30.50 10.33 28.24 12.38 25.80 14.07 M 8.92 12.64 C 9.09 17.07 9.01 21.50 9.01 25.93 C 11.41 28.25 14.04 30.35 16.95 32.01 C 16.36 27.52 16.87 23.00 16.66 18.48 C 14.18 16.41 11.56 14.52 8.92 12.64 M 17.97 19.18 C 18.02 23.43 18.12 27.69 18.06 31.94 C 20.23 30.32 22.51 28.86 24.92 27.64 C 25.08 23.26 24.95 18.88 25.02 14.50 C 22.80 16.25 20.35 17.67 17.97 19.18 Z" />
</g>
<g id="#919191ff">
<path fill="#919191" opacity="1.00" d=" M 18.91 6.50 C 21.32 5.72 23.36 4.22 25.23 2.56 C 27.58 4.39 29.96 6.19 32.35 7.96 C 30.18 9.36 28.13 10.94 25.90 12.24 C 22.89 11.37 21.10 8.53 18.91 6.50 Z" />
<path fill="#919191" opacity="1.00" d=" M 25.80 14.07 C 28.24 12.38 30.50 10.33 33.36 9.37 C 33.04 13.46 33.04 17.56 32.98 21.66 C 30.77 23.27 28.60 24.94 26.44 26.60 C 26.32 22.42 26.09 18.24 25.80 14.07 Z" />
</g>
<g id="#000000ff">
</g>
</svg>
