<?xml version="1.0" encoding="UTF-8" ?>
<!DOCTYPE svg PUBLIC "-//W3C//DTD SVG 1.1//EN" "http://www.w3.org/Graphics/SVG/1.1/DTD/svg11.dtd">
<svg width="120pt" height="120pt" viewBox="0 0 120 120" version="1.1" xmlns="http://www.w3.org/2000/svg">
<g id="#ffffffff">
<path fill="#ffffff" opacity="1.00" d=" M 0.00 0.00 L 0.26 0.00 C 0.19 0.06 0.06 0.19 0.00 0.25 L 0.00 0.00 Z" />
<path fill="#ffffff" opacity="1.00" d=" M 8.93 0.00 L 110.74 0.00 C 114.84 0.75 116.79 5.20 116.65 9.01 C 116.64 33.34 116.65 57.67 116.64 82.00 C 116.66 86.38 116.78 90.78 116.32 95.15 C 114.03 97.01 111.77 99.28 108.69 99.67 C 102.56 100.58 96.31 99.26 90.19 100.22 C 85.24 103.45 83.63 110.70 77.70 112.65 C 70.83 113.33 63.90 112.69 57.00 112.89 C 51.85 112.67 46.61 113.51 41.53 112.45 C 36.22 109.91 34.54 103.39 29.81 100.21 C 23.68 99.27 17.44 100.58 11.31 99.67 C 8.23 99.28 5.97 97.01 3.68 95.15 C 3.22 90.78 3.34 86.38 3.36 82.00 C 3.35 57.67 3.37 33.34 3.35 9.02 C 3.21 5.26 5.06 1.09 8.93 0.00 M 62.49 13.71 C 59.70 15.75 56.18 15.49 52.97 16.23 C 48.99 16.76 45.64 19.23 42.43 21.46 C 36.51 27.69 34.64 36.58 34.35 44.91 C 34.03 47.54 35.87 50.60 33.72 52.80 C 31.41 59.94 32.68 67.67 32.34 75.05 C 31.71 86.61 43.34 96.77 54.73 94.40 C 59.24 94.44 62.36 90.54 66.72 90.31 C 72.26 89.23 77.87 87.01 81.49 82.47 C 89.57 75.70 91.22 63.74 88.78 54.00 C 84.79 47.91 87.85 40.69 87.51 34.01 C 87.67 27.63 85.37 20.82 79.89 17.13 C 75.23 12.77 68.40 12.77 62.49 13.71 Z" />
<path fill="#ffffff" opacity="1.00" d=" M 65.43 23.57 C 70.99 21.50 77.32 26.30 77.60 32.04 C 77.71 37.72 77.29 43.39 76.76 49.03 C 75.91 53.10 80.12 55.92 79.94 59.96 C 81.59 70.14 72.99 80.14 62.78 80.45 C 58.79 80.05 56.45 84.15 52.62 84.50 C 46.85 85.28 41.67 79.71 42.03 74.06 C 42.37 66.91 40.82 59.11 44.55 52.60 C 43.74 45.75 43.95 38.44 47.17 32.18 C 49.61 27.64 54.89 25.26 59.93 25.59 C 62.02 25.86 63.61 24.29 65.43 23.57 M 66.65 30.61 C 65.65 32.09 65.58 33.89 65.55 35.62 C 63.30 34.16 60.89 32.46 58.05 32.90 C 54.44 32.74 52.20 36.47 51.72 39.63 C 50.73 44.30 50.08 49.82 53.18 53.86 C 56.52 58.61 63.71 56.22 67.39 60.49 C 67.67 62.19 67.98 64.31 66.52 65.58 C 64.36 68.55 59.58 68.16 57.04 65.89 C 54.49 64.04 55.18 60.48 54.15 57.85 C 52.72 56.10 49.31 56.81 49.10 59.24 C 48.79 64.45 48.94 69.70 48.98 74.92 C 48.73 77.61 53.12 78.29 53.89 75.78 C 54.16 74.34 54.18 72.87 54.27 71.42 C 57.88 72.84 61.87 74.39 65.72 72.86 C 69.91 71.05 73.79 66.87 73.13 62.01 C 73.50 57.95 70.14 54.71 66.65 53.30 C 63.55 51.78 59.83 52.03 56.87 50.21 C 55.59 47.49 56.14 44.41 56.70 41.58 C 57.11 40.18 57.14 38.17 59.01 38.00 C 63.54 39.43 64.63 44.40 65.44 48.47 C 65.68 50.21 67.52 49.96 68.80 50.09 C 69.81 49.18 70.39 47.93 70.30 46.55 C 70.39 42.07 70.78 37.60 70.87 33.13 C 70.90 31.01 68.46 29.87 66.65 30.61 Z" />
</g>
<g id="#000000ff">
</g>
<g id="#cececeff">
<path fill="#cecece" opacity="1.00" d=" M 3.68 95.15 C 5.97 97.01 8.23 99.28 11.31 99.67 C 17.44 100.58 23.68 99.27 29.81 100.21 C 34.54 103.39 36.22 109.91 41.53 112.45 C 46.61 113.51 51.85 112.67 57.00 112.89 C 63.90 112.69 70.83 113.33 77.70 112.65 C 83.63 110.70 85.24 103.45 90.19 100.22 C 96.31 99.26 102.56 100.58 108.69 99.67 C 111.77 99.28 114.03 97.01 116.32 95.15 C 115.96 98.33 116.39 102.38 113.59 104.58 C 107.37 108.23 99.91 106.24 93.11 106.55 C 87.59 110.00 85.17 116.66 79.54 120.00 L 40.51 120.00 C 34.82 116.71 32.42 109.99 26.88 106.55 C 20.08 106.24 12.62 108.23 6.41 104.57 C 3.60 102.37 4.04 98.33 3.68 95.15 Z" />
</g>
</svg>
