<?xml version="1.0" encoding="UTF-8" ?>
<!DOCTYPE svg PUBLIC "-//W3C//DTD SVG 1.1//EN" "http://www.w3.org/Graphics/SVG/1.1/DTD/svg11.dtd">
<svg width="232pt" height="232pt" viewBox="0 0 232 232" version="1.1" xmlns="http://www.w3.org/2000/svg">
<g id="#fefefdff">
<path fill="#fefefd" opacity="1.00" d=" M 98.25 30.42 C 114.05 26.45 131.17 28.02 145.96 34.88 C 163.88 43.12 178.26 58.89 184.60 77.58 C 190.12 93.19 189.87 110.69 184.28 126.24 C 178.79 142.01 167.49 155.53 153.35 164.29 C 148.44 166.90 143.48 170.40 137.64 169.85 C 135.19 157.85 131.39 146.15 129.32 134.07 C 139.07 130.21 146.49 121.44 149.37 111.44 C 152.31 101.36 150.64 90.01 144.59 81.37 C 137.26 70.35 123.25 64.30 110.20 66.52 C 98.82 68.44 88.38 76.02 83.86 86.76 C 75.58 103.79 83.92 126.91 101.74 133.91 C 101.63 135.87 101.60 137.85 101.17 139.78 C 98.63 149.84 96.13 159.91 93.76 170.01 C 92.11 169.87 90.44 169.81 88.81 169.45 C 62.06 159.27 43.04 131.66 43.18 103.01 C 42.53 88.24 46.91 73.39 55.07 61.10 C 64.92 45.93 80.68 34.75 98.25 30.42 Z" />
<path fill="#fefefd" opacity="1.00" d=" M 35.33 184.35 C 39.90 181.50 45.86 182.38 50.42 184.77 C 58.22 190.23 59.01 202.30 53.69 209.75 C 51.25 213.23 46.97 214.65 42.90 214.95 C 35.05 215.36 28.30 208.61 27.75 200.97 C 27.45 194.73 29.50 187.53 35.33 184.35 M 40.77 188.85 C 35.04 190.34 33.60 197.21 34.96 202.24 C 35.88 207.07 42.21 210.06 46.38 207.25 C 51.09 204.53 51.14 198.02 49.36 193.51 C 48.22 190.08 44.30 187.71 40.77 188.85 Z" />
<path fill="#fefefd" opacity="1.00" d=" M 191.63 185.66 C 193.55 185.65 195.48 185.65 197.41 185.64 C 197.79 187.97 198.18 190.31 198.52 192.65 C 199.83 192.64 201.15 192.63 202.46 192.62 C 202.86 193.89 203.27 195.17 203.67 196.44 C 202.04 196.58 200.40 196.71 198.76 196.85 C 198.58 200.85 196.59 205.35 198.88 209.05 C 200.28 209.64 201.85 209.57 203.34 209.79 C 203.35 211.34 203.36 212.90 203.38 214.46 C 199.39 214.48 193.85 215.60 191.88 210.99 C 191.07 206.47 191.94 201.78 190.82 197.27 C 189.98 197.33 188.30 197.46 187.45 197.52 C 187.45 195.91 187.45 194.31 187.46 192.70 C 188.80 192.66 190.14 192.63 191.49 192.59 C 191.53 190.28 191.57 187.97 191.63 185.66 Z" />
<path fill="#fefefd" opacity="1.00" d=" M 62.38 192.69 C 68.46 193.02 76.89 191.21 80.21 197.88 C 81.38 203.14 82.01 209.85 77.40 213.71 C 74.71 213.77 72.02 213.79 69.33 213.72 C 69.26 216.68 69.42 219.67 68.83 222.60 C 66.52 222.87 64.20 222.77 61.89 222.75 C 61.94 212.74 61.21 202.66 62.38 192.69 M 68.69 201.07 C 68.52 204.12 67.87 207.83 70.65 209.95 C 71.86 209.65 73.07 209.36 74.28 209.08 C 74.68 204.98 75.60 200.22 72.15 197.10 C 70.99 198.36 68.58 199.01 68.69 201.07 Z" />
<path fill="#fefefd" opacity="1.00" d=" M 133.44 192.78 C 135.59 192.72 137.74 192.68 139.90 192.63 C 140.57 195.89 141.28 199.14 142.01 202.39 C 143.23 199.49 144.22 196.50 144.92 193.44 C 146.99 193.39 149.05 193.37 151.11 193.36 C 151.93 196.55 152.92 199.68 153.97 202.80 C 154.50 199.41 155.18 196.06 155.83 192.70 C 158.03 192.73 160.24 192.76 162.44 192.81 C 160.43 200.06 158.79 207.42 156.58 214.62 C 154.90 214.59 153.22 214.57 151.54 214.55 C 150.24 210.60 149.12 206.59 148.04 202.58 C 146.92 206.26 145.86 209.96 145.14 213.75 C 143.05 213.75 140.97 213.71 138.88 213.61 C 137.46 206.57 135.02 199.78 133.44 192.78 Z" />
<path fill="#fefefd" opacity="1.00" d=" M 88.70 196.57 C 90.38 194.23 93.38 193.70 95.90 192.73 C 98.34 193.57 101.19 194.00 102.95 196.10 C 105.00 198.44 105.18 201.70 105.81 204.61 C 101.37 204.83 96.95 205.26 92.55 205.78 C 93.01 207.37 93.48 208.97 93.92 210.57 C 96.83 211.21 98.42 208.57 100.10 206.71 C 101.42 206.71 102.74 206.71 104.06 206.72 C 104.45 207.28 105.24 208.40 105.64 208.96 C 103.68 212.79 99.65 215.81 95.17 214.97 C 91.39 214.69 87.65 212.27 86.61 208.51 C 85.92 204.48 86.02 199.90 88.70 196.57 M 93.65 198.55 C 93.51 199.24 93.24 200.62 93.10 201.31 C 95.01 201.32 96.93 201.33 98.84 201.34 C 98.59 199.32 97.82 197.46 96.18 196.17 C 95.33 196.96 94.49 197.75 93.65 198.55 Z" />
<path fill="#fefefd" opacity="1.00" d=" M 109.68 192.79 C 110.27 192.73 111.44 192.62 112.02 192.56 C 112.55 193.79 113.67 195.60 115.17 194.32 C 119.10 191.73 125.12 192.00 127.50 196.50 C 128.35 202.50 127.86 208.61 127.71 214.64 C 125.91 214.58 124.12 214.53 122.32 214.49 C 122.13 209.18 122.84 203.76 121.41 198.57 C 120.07 198.49 118.72 198.41 117.38 198.33 C 115.74 203.49 116.80 208.95 116.52 214.26 C 114.23 214.34 111.94 214.39 109.66 214.44 C 109.70 207.22 109.66 200.00 109.68 192.79 Z" />
<path fill="#fefefd" opacity="1.00" d=" M 166.98 193.44 C 169.15 193.23 171.33 193.28 173.51 193.29 C 173.51 193.99 173.52 195.40 173.52 196.10 C 175.83 194.08 178.70 192.99 181.64 192.26 C 181.72 194.32 181.79 196.37 181.84 198.43 C 178.72 198.11 175.81 199.11 173.52 201.21 C 173.54 205.90 173.19 210.58 172.38 215.20 C 170.71 214.88 169.04 214.60 167.37 214.35 C 166.77 211.58 166.66 208.75 167.03 205.95 C 167.58 201.78 166.21 197.59 166.98 193.44 Z" />
</g>
<g id="#6a7ff0ff">
<path fill="#6a7ff0" opacity="1.00" d=" M 21.23 0.00 L 209.60 0.00 C 221.27 3.09 230.56 13.86 232.00 25.84 L 232.00 205.20 C 231.15 217.55 221.72 228.48 209.99 232.00 L 21.48 232.00 C 10.82 229.16 2.29 219.85 0.00 209.12 L 0.00 22.74 C 2.33 12.08 10.83 3.16 21.23 0.00 M 98.25 30.42 C 80.68 34.75 64.92 45.93 55.07 61.10 C 46.91 73.39 42.53 88.24 43.18 103.01 C 43.04 131.66 62.06 159.27 88.81 169.45 C 90.44 169.81 92.11 169.87 93.76 170.01 C 96.13 159.91 98.63 149.84 101.17 139.78 C 101.60 137.85 101.63 135.87 101.74 133.91 C 83.92 126.91 75.58 103.79 83.86 86.76 C 88.38 76.02 98.82 68.44 110.20 66.52 C 123.25 64.30 137.26 70.35 144.59 81.37 C 150.64 90.01 152.31 101.36 149.37 111.44 C 146.49 121.44 139.07 130.21 129.32 134.07 C 131.39 146.15 135.19 157.85 137.64 169.85 C 143.48 170.40 148.44 166.90 153.35 164.29 C 167.49 155.53 178.79 142.01 184.28 126.24 C 189.87 110.69 190.12 93.19 184.60 77.58 C 178.26 58.89 163.88 43.12 145.96 34.88 C 131.17 28.02 114.05 26.45 98.25 30.42 M 35.33 184.35 C 29.50 187.53 27.45 194.73 27.75 200.97 C 28.30 208.61 35.05 215.36 42.90 214.95 C 46.97 214.65 51.25 213.23 53.69 209.75 C 59.01 202.30 58.22 190.23 50.42 184.77 C 45.86 182.38 39.90 181.50 35.33 184.35 M 191.63 185.66 C 191.57 187.97 191.53 190.28 191.49 192.59 C 190.14 192.63 188.80 192.66 187.46 192.70 C 187.45 194.31 187.45 195.91 187.45 197.52 C 188.30 197.46 189.98 197.33 190.82 197.27 C 191.94 201.78 191.07 206.47 191.88 210.99 C 193.85 215.60 199.39 214.48 203.38 214.46 C 203.36 212.90 203.35 211.34 203.34 209.79 C 201.85 209.57 200.28 209.64 198.88 209.05 C 196.59 205.35 198.58 200.85 198.76 196.85 C 200.40 196.71 202.04 196.58 203.67 196.44 C 203.27 195.17 202.86 193.89 202.46 192.62 C 201.15 192.63 199.83 192.64 198.52 192.65 C 198.18 190.31 197.79 187.97 197.41 185.64 C 195.48 185.65 193.55 185.65 191.63 185.66 M 62.38 192.69 C 61.21 202.66 61.94 212.74 61.89 222.75 C 64.20 222.77 66.52 222.87 68.83 222.60 C 69.42 219.67 69.26 216.68 69.33 213.72 C 72.02 213.79 74.71 213.77 77.40 213.71 C 82.01 209.85 81.38 203.14 80.21 197.88 C 76.89 191.21 68.46 193.02 62.38 192.69 M 133.44 192.78 C 135.02 199.78 137.46 206.57 138.88 213.61 C 140.97 213.71 143.05 213.75 145.14 213.75 C 145.86 209.96 146.92 206.26 148.04 202.58 C 149.12 206.59 150.24 210.60 151.54 214.55 C 153.22 214.57 154.90 214.59 156.58 214.62 C 158.79 207.42 160.43 200.06 162.44 192.81 C 160.24 192.76 158.03 192.73 155.83 192.70 C 155.18 196.06 154.50 199.41 153.97 202.80 C 152.92 199.68 151.93 196.55 151.11 193.36 C 149.05 193.37 146.99 193.39 144.92 193.44 C 144.22 196.50 143.23 199.49 142.01 202.39 C 141.28 199.14 140.57 195.89 139.90 192.63 C 137.74 192.68 135.59 192.72 133.44 192.78 M 88.70 196.57 C 86.02 199.90 85.92 204.48 86.61 208.51 C 87.65 212.27 91.39 214.69 95.17 214.97 C 99.65 215.81 103.68 212.79 105.64 208.96 C 105.24 208.40 104.45 207.28 104.06 206.72 C 102.74 206.71 101.42 206.71 100.10 206.71 C 98.42 208.57 96.83 211.21 93.92 210.57 C 93.48 208.97 93.01 207.37 92.55 205.78 C 96.95 205.26 101.37 204.83 105.81 204.61 C 105.18 201.70 105.00 198.44 102.95 196.10 C 101.19 194.00 98.34 193.57 95.90 192.73 C 93.38 193.70 90.38 194.23 88.70 196.57 M 109.68 192.79 C 109.66 200.00 109.70 207.22 109.66 214.44 C 111.94 214.39 114.23 214.34 116.52 214.26 C 116.80 208.95 115.74 203.49 117.38 198.33 C 118.72 198.41 120.07 198.49 121.41 198.57 C 122.84 203.76 122.13 209.18 122.32 214.49 C 124.12 214.53 125.91 214.58 127.71 214.64 C 127.86 208.61 128.35 202.50 127.50 196.50 C 125.12 192.00 119.10 191.73 115.17 194.32 C 113.67 195.60 112.55 193.79 112.02 192.56 C 111.44 192.62 110.27 192.73 109.68 192.79 M 166.98 193.44 C 166.21 197.59 167.58 201.78 167.03 205.95 C 166.66 208.75 166.77 211.58 167.37 214.35 C 169.04 214.60 170.71 214.88 172.38 215.20 C 173.19 210.58 173.54 205.90 173.52 201.21 C 175.81 199.11 178.72 198.11 181.84 198.43 C 181.79 196.37 181.72 194.32 181.64 192.26 C 178.70 192.99 175.83 194.08 173.52 196.10 C 173.52 195.40 173.51 193.99 173.51 193.29 C 171.33 193.28 169.15 193.23 166.98 193.44 Z" />
<path fill="#6a7ff0" opacity="1.00" d=" M 40.77 188.85 C 44.30 187.71 48.22 190.08 49.36 193.51 C 51.14 198.02 51.09 204.53 46.38 207.25 C 42.21 210.06 35.88 207.07 34.96 202.24 C 33.60 197.21 35.04 190.34 40.77 188.85 Z" />
<path fill="#6a7ff0" opacity="1.00" d=" M 93.65 198.55 C 94.49 197.75 95.33 196.96 96.18 196.17 C 97.82 197.46 98.59 199.32 98.84 201.34 C 96.93 201.33 95.01 201.32 93.10 201.31 C 93.24 200.62 93.51 199.24 93.65 198.55 Z" />
<path fill="#6a7ff0" opacity="1.00" d=" M 68.69 201.07 C 68.58 199.01 70.99 198.36 72.15 197.10 C 75.60 200.22 74.68 204.98 74.28 209.08 C 73.07 209.36 71.86 209.65 70.65 209.95 C 67.87 207.83 68.52 204.12 68.69 201.07 Z" />
</g>
</svg>
